# xmcd CD database file
#
# Track frame offsets:
#	150
#	32350
#	74012
#	109532
#	128942
#	174062
#	194087
#	226750
#	260687
#	295750
#
# Disc length: 4568 seconds
#
# Revision: 0
# Processed by: cddbd v1.5.2PL0 Copyright (c) Steve Scherf et al.
# Submitted via: CDex 1.70beta2
#
DISCID=8911d60a
DTITLE=Shlomi Goldenberg - To You
DYEAR=1992
DGENRE=Jazz
TTITLE0=To You
TTITLE1=Turbulence
TTITLE2=Serenidipity
TTITLE3=Unsopken WOrds
TTITLE4=How deep is the ocean
TTITLE5=Bo Po
TTITLE6=Call Of The Spirits
TTITLE7=Take It Out Mack
TTITLE8=Goofy Wants To Go Home
TTITLE9=To You
EXTD=YEAR: 1992
EXTT0=
EXTT1=
EXTT2=
EXTT3=
EXTT4=
EXTT5=
EXTT6=
EXTT7=
EXTT8=
EXTT9=
PLAYORDER=
